<mxfile host="app.diagrams.net" agent="Mozilla/5.0 (Windows NT 10.0; Win64; x64) AppleWebKit/537.36 (KHTML, like Gecko) Chrome/127.0.0.0 Safari/537.36 OPR/113.0.0.0" version="24.7.12" pages="8">
  <diagram name="Página-1" id="sWKjrfDs90vtt_dnpq8s">
    <mxGraphModel dx="1725" dy="1114" grid="0" gridSize="10" guides="1" tooltips="1" connect="1" arrows="1" fold="1" page="0" pageScale="1" pageWidth="827" pageHeight="1169" math="0" shadow="0">
      <root>
        <mxCell id="0" />
        <mxCell id="1" parent="0" />
        <mxCell id="yVIj7rE1_db8uOLhe7H_-7" value="" style="rounded=0;whiteSpace=wrap;html=1;" vertex="1" parent="1">
          <mxGeometry x="131" y="-287" width="420" height="466" as="geometry" />
        </mxCell>
        <mxCell id="yVIj7rE1_db8uOLhe7H_-18" style="edgeStyle=none;curved=1;rounded=0;orthogonalLoop=1;jettySize=auto;html=1;exitX=1;exitY=0.3333333333333333;exitDx=0;exitDy=0;exitPerimeter=0;entryX=0;entryY=0.5;entryDx=0;entryDy=0;fontSize=12;startSize=8;endSize=8;" edge="1" parent="1" source="KjNxAj0lBC4kn9JRVT9O-1" target="yVIj7rE1_db8uOLhe7H_-10">
          <mxGeometry relative="1" as="geometry" />
        </mxCell>
        <mxCell id="yVIj7rE1_db8uOLhe7H_-19" style="edgeStyle=none;curved=1;rounded=0;orthogonalLoop=1;jettySize=auto;html=1;exitX=1;exitY=0.3333333333333333;exitDx=0;exitDy=0;exitPerimeter=0;entryX=0;entryY=0.5;entryDx=0;entryDy=0;fontSize=12;startSize=8;endSize=8;" edge="1" parent="1" source="KjNxAj0lBC4kn9JRVT9O-1" target="yVIj7rE1_db8uOLhe7H_-8">
          <mxGeometry relative="1" as="geometry" />
        </mxCell>
        <mxCell id="yVIj7rE1_db8uOLhe7H_-24" style="edgeStyle=none;curved=1;rounded=0;orthogonalLoop=1;jettySize=auto;html=1;exitX=1;exitY=0.3333333333333333;exitDx=0;exitDy=0;exitPerimeter=0;entryX=0;entryY=0.5;entryDx=0;entryDy=0;fontSize=12;startSize=8;endSize=8;" edge="1" parent="1" source="KjNxAj0lBC4kn9JRVT9O-1" target="yVIj7rE1_db8uOLhe7H_-23">
          <mxGeometry relative="1" as="geometry" />
        </mxCell>
        <mxCell id="KjNxAj0lBC4kn9JRVT9O-1" value="Usuário" style="shape=umlActor;verticalLabelPosition=bottom;verticalAlign=top;html=1;outlineConnect=0;" vertex="1" parent="1">
          <mxGeometry x="-12" y="-78" width="30" height="60" as="geometry" />
        </mxCell>
        <mxCell id="yVIj7rE1_db8uOLhe7H_-6" value="Gestão de usuários" style="text;html=1;align=center;verticalAlign=middle;whiteSpace=wrap;rounded=0;fontSize=30;strokeWidth=1;" vertex="1" parent="1">
          <mxGeometry x="102" y="-274" width="339" height="30" as="geometry" />
        </mxCell>
        <mxCell id="yVIj7rE1_db8uOLhe7H_-8" value="Autenticar Usuário" style="ellipse;whiteSpace=wrap;html=1;" vertex="1" parent="1">
          <mxGeometry x="255" y="-61" width="120" height="80" as="geometry" />
        </mxCell>
        <mxCell id="yVIj7rE1_db8uOLhe7H_-14" style="edgeStyle=none;curved=1;rounded=0;orthogonalLoop=1;jettySize=auto;html=1;exitX=0;exitY=0.5;exitDx=0;exitDy=0;entryX=1;entryY=0;entryDx=0;entryDy=0;fontSize=12;startSize=8;endSize=8;dashed=1;" edge="1" parent="1" source="yVIj7rE1_db8uOLhe7H_-9" target="yVIj7rE1_db8uOLhe7H_-10">
          <mxGeometry relative="1" as="geometry" />
        </mxCell>
        <mxCell id="yVIj7rE1_db8uOLhe7H_-9" value="Liberação de Cadastro após conferência de documentação" style="ellipse;whiteSpace=wrap;html=1;" vertex="1" parent="1">
          <mxGeometry x="404" y="-207" width="120" height="80" as="geometry" />
        </mxCell>
        <mxCell id="yVIj7rE1_db8uOLhe7H_-10" value="Gerenciar cadastro de usuário" style="ellipse;whiteSpace=wrap;html=1;" vertex="1" parent="1">
          <mxGeometry x="255" y="-161" width="120" height="80" as="geometry" />
        </mxCell>
        <mxCell id="yVIj7rE1_db8uOLhe7H_-11" style="edgeStyle=none;curved=1;rounded=0;orthogonalLoop=1;jettySize=auto;html=1;exitX=0;exitY=1;exitDx=0;exitDy=0;fontSize=12;startSize=8;endSize=8;" edge="1" parent="1" source="yVIj7rE1_db8uOLhe7H_-7" target="yVIj7rE1_db8uOLhe7H_-7">
          <mxGeometry relative="1" as="geometry" />
        </mxCell>
        <mxCell id="yVIj7rE1_db8uOLhe7H_-12" style="edgeStyle=none;curved=1;rounded=0;orthogonalLoop=1;jettySize=auto;html=1;exitX=1;exitY=1;exitDx=0;exitDy=0;fontSize=12;startSize=8;endSize=8;" edge="1" parent="1" source="yVIj7rE1_db8uOLhe7H_-7" target="yVIj7rE1_db8uOLhe7H_-7">
          <mxGeometry relative="1" as="geometry" />
        </mxCell>
        <mxCell id="yVIj7rE1_db8uOLhe7H_-16" value="&amp;lt;&amp;lt;extend&amp;gt;&amp;gt;" style="text;html=1;align=center;verticalAlign=middle;whiteSpace=wrap;rounded=0;fontSize=16;" vertex="1" parent="1">
          <mxGeometry x="434" y="-235" width="60" height="30" as="geometry" />
        </mxCell>
        <mxCell id="yVIj7rE1_db8uOLhe7H_-25" style="edgeStyle=none;curved=1;rounded=0;orthogonalLoop=1;jettySize=auto;html=1;exitX=0;exitY=0.3333333333333333;exitDx=0;exitDy=0;exitPerimeter=0;entryX=1;entryY=0.5;entryDx=0;entryDy=0;fontSize=12;startSize=8;endSize=8;" edge="1" parent="1" source="yVIj7rE1_db8uOLhe7H_-20" target="yVIj7rE1_db8uOLhe7H_-23">
          <mxGeometry relative="1" as="geometry" />
        </mxCell>
        <mxCell id="yVIj7rE1_db8uOLhe7H_-26" style="edgeStyle=none;curved=1;rounded=0;orthogonalLoop=1;jettySize=auto;html=1;exitX=0;exitY=0.3333333333333333;exitDx=0;exitDy=0;exitPerimeter=0;entryX=1;entryY=0.5;entryDx=0;entryDy=0;fontSize=12;startSize=8;endSize=8;" edge="1" parent="1" source="yVIj7rE1_db8uOLhe7H_-20" target="yVIj7rE1_db8uOLhe7H_-10">
          <mxGeometry relative="1" as="geometry" />
        </mxCell>
        <mxCell id="yVIj7rE1_db8uOLhe7H_-20" value="Suporte" style="shape=umlActor;verticalLabelPosition=bottom;verticalAlign=top;html=1;outlineConnect=0;" vertex="1" parent="1">
          <mxGeometry x="651" y="-61" width="30" height="60" as="geometry" />
        </mxCell>
        <mxCell id="yVIj7rE1_db8uOLhe7H_-23" value="Recuperar e Alterar Credenciais" style="ellipse;whiteSpace=wrap;html=1;" vertex="1" parent="1">
          <mxGeometry x="255" y="43" width="120" height="80" as="geometry" />
        </mxCell>
      </root>
    </mxGraphModel>
  </diagram>
  <diagram id="L4-HKPXh_NsKCe0-uDbi" name="Página-2">
    <mxGraphModel dx="1678" dy="1012" grid="0" gridSize="10" guides="1" tooltips="1" connect="1" arrows="1" fold="1" page="0" pageScale="1" pageWidth="827" pageHeight="1169" math="0" shadow="0">
      <root>
        <mxCell id="0" />
        <mxCell id="1" parent="0" />
        <mxCell id="yDL8rvHRvDkG-PT17stj-1" value="" style="rounded=0;whiteSpace=wrap;html=1;" vertex="1" parent="1">
          <mxGeometry x="659" y="33" width="432" height="609" as="geometry" />
        </mxCell>
        <mxCell id="yDL8rvHRvDkG-PT17stj-25" style="edgeStyle=none;curved=1;rounded=0;orthogonalLoop=1;jettySize=auto;html=1;exitX=1;exitY=0.3333333333333333;exitDx=0;exitDy=0;exitPerimeter=0;entryX=0;entryY=0.5;entryDx=0;entryDy=0;fontSize=12;startSize=8;endSize=8;" edge="1" parent="1" source="yDL8rvHRvDkG-PT17stj-5" target="yDL8rvHRvDkG-PT17stj-10">
          <mxGeometry relative="1" as="geometry" />
        </mxCell>
        <mxCell id="yDL8rvHRvDkG-PT17stj-26" style="edgeStyle=none;curved=1;rounded=0;orthogonalLoop=1;jettySize=auto;html=1;exitX=1;exitY=0.3333333333333333;exitDx=0;exitDy=0;exitPerimeter=0;entryX=0;entryY=0.5;entryDx=0;entryDy=0;fontSize=12;startSize=8;endSize=8;" edge="1" parent="1" source="yDL8rvHRvDkG-PT17stj-5" target="yDL8rvHRvDkG-PT17stj-7">
          <mxGeometry relative="1" as="geometry" />
        </mxCell>
        <mxCell id="yDL8rvHRvDkG-PT17stj-5" value="Usuário" style="shape=umlActor;verticalLabelPosition=bottom;verticalAlign=top;html=1;outlineConnect=0;" vertex="1" parent="1">
          <mxGeometry x="518" y="269" width="30" height="60" as="geometry" />
        </mxCell>
        <mxCell id="yDL8rvHRvDkG-PT17stj-6" value="Gestão de Ordem de Compra (OC)" style="text;html=1;align=center;verticalAlign=middle;whiteSpace=wrap;rounded=0;fontSize=25;strokeWidth=1;" vertex="1" parent="1">
          <mxGeometry x="620" y="36" width="480" height="30" as="geometry" />
        </mxCell>
        <mxCell id="yDL8rvHRvDkG-PT17stj-7" value="Consultar Ordens de Compra (OC)" style="ellipse;whiteSpace=wrap;html=1;" vertex="1" parent="1">
          <mxGeometry x="830" y="357" width="120" height="80" as="geometry" />
        </mxCell>
        <mxCell id="yDL8rvHRvDkG-PT17stj-10" value="Gerenciar Ordens de Compra (OC)" style="ellipse;whiteSpace=wrap;html=1;" vertex="1" parent="1">
          <mxGeometry x="830" y="167" width="120" height="80" as="geometry" />
        </mxCell>
        <mxCell id="yDL8rvHRvDkG-PT17stj-11" style="edgeStyle=none;curved=1;rounded=0;orthogonalLoop=1;jettySize=auto;html=1;exitX=0;exitY=1;exitDx=0;exitDy=0;fontSize=12;startSize=8;endSize=8;" edge="1" parent="1" source="yDL8rvHRvDkG-PT17stj-1" target="yDL8rvHRvDkG-PT17stj-1">
          <mxGeometry relative="1" as="geometry" />
        </mxCell>
        <mxCell id="yDL8rvHRvDkG-PT17stj-12" style="edgeStyle=none;curved=1;rounded=0;orthogonalLoop=1;jettySize=auto;html=1;exitX=1;exitY=1;exitDx=0;exitDy=0;fontSize=12;startSize=8;endSize=8;" edge="1" parent="1" source="yDL8rvHRvDkG-PT17stj-1" target="yDL8rvHRvDkG-PT17stj-1">
          <mxGeometry relative="1" as="geometry" />
        </mxCell>
        <mxCell id="yDL8rvHRvDkG-PT17stj-13" value="&amp;lt;&amp;lt;include&amp;gt;&amp;gt;" style="text;html=1;align=center;verticalAlign=middle;whiteSpace=wrap;rounded=0;fontSize=16;" vertex="1" parent="1">
          <mxGeometry x="703" y="80" width="60" height="30" as="geometry" />
        </mxCell>
        <mxCell id="yDL8rvHRvDkG-PT17stj-33" style="edgeStyle=none;curved=1;rounded=0;orthogonalLoop=1;jettySize=auto;html=1;exitX=1;exitY=0.5;exitDx=0;exitDy=0;fontSize=12;startSize=8;endSize=8;dashed=1;" edge="1" parent="1" source="yDL8rvHRvDkG-PT17stj-32" target="yDL8rvHRvDkG-PT17stj-10">
          <mxGeometry relative="1" as="geometry" />
        </mxCell>
        <mxCell id="yDL8rvHRvDkG-PT17stj-32" value="Validar OC" style="ellipse;whiteSpace=wrap;html=1;" vertex="1" parent="1">
          <mxGeometry x="673" y="103" width="120" height="80" as="geometry" />
        </mxCell>
      </root>
    </mxGraphModel>
  </diagram>
  <diagram id="UyS_H-RRB36ypZyRmxNp" name="Página-3">
    <mxGraphModel dx="1067" dy="714" grid="0" gridSize="10" guides="1" tooltips="1" connect="1" arrows="1" fold="1" page="0" pageScale="1" pageWidth="827" pageHeight="1169" math="0" shadow="0">
      <root>
        <mxCell id="0" />
        <mxCell id="1" parent="0" />
        <mxCell id="KOvkqLLY6F_9uL95dlx_-1" value="" style="rounded=0;whiteSpace=wrap;html=1;" vertex="1" parent="1">
          <mxGeometry x="659" y="33" width="432" height="609" as="geometry" />
        </mxCell>
        <mxCell id="KOvkqLLY6F_9uL95dlx_-2" style="edgeStyle=none;curved=1;rounded=0;orthogonalLoop=1;jettySize=auto;html=1;exitX=1;exitY=0.3333333333333333;exitDx=0;exitDy=0;exitPerimeter=0;entryX=0;entryY=0.5;entryDx=0;entryDy=0;fontSize=12;startSize=8;endSize=8;" edge="1" parent="1" source="KOvkqLLY6F_9uL95dlx_-4" target="KOvkqLLY6F_9uL95dlx_-7">
          <mxGeometry relative="1" as="geometry" />
        </mxCell>
        <mxCell id="KOvkqLLY6F_9uL95dlx_-3" style="edgeStyle=none;curved=1;rounded=0;orthogonalLoop=1;jettySize=auto;html=1;exitX=1;exitY=0.3333333333333333;exitDx=0;exitDy=0;exitPerimeter=0;entryX=0;entryY=0.5;entryDx=0;entryDy=0;fontSize=12;startSize=8;endSize=8;" edge="1" parent="1" source="KOvkqLLY6F_9uL95dlx_-4" target="KOvkqLLY6F_9uL95dlx_-6">
          <mxGeometry relative="1" as="geometry" />
        </mxCell>
        <mxCell id="KOvkqLLY6F_9uL95dlx_-4" value="Usuário" style="shape=umlActor;verticalLabelPosition=bottom;verticalAlign=top;html=1;outlineConnect=0;" vertex="1" parent="1">
          <mxGeometry x="518" y="269" width="30" height="60" as="geometry" />
        </mxCell>
        <mxCell id="KOvkqLLY6F_9uL95dlx_-5" value="Gestão de Ordens de Venda (OV)" style="text;html=1;align=center;verticalAlign=middle;whiteSpace=wrap;rounded=0;fontSize=25;strokeWidth=1;" vertex="1" parent="1">
          <mxGeometry x="620" y="36" width="480" height="30" as="geometry" />
        </mxCell>
        <mxCell id="KOvkqLLY6F_9uL95dlx_-6" value="Consultar Ordens de Venda (OV)" style="ellipse;whiteSpace=wrap;html=1;" vertex="1" parent="1">
          <mxGeometry x="815" y="305" width="120" height="80" as="geometry" />
        </mxCell>
        <mxCell id="KOvkqLLY6F_9uL95dlx_-7" value="Gerenciar Ordens de Venda (OV)" style="ellipse;whiteSpace=wrap;html=1;" vertex="1" parent="1">
          <mxGeometry x="819" y="164" width="120" height="80" as="geometry" />
        </mxCell>
        <mxCell id="KOvkqLLY6F_9uL95dlx_-8" style="edgeStyle=none;curved=1;rounded=0;orthogonalLoop=1;jettySize=auto;html=1;exitX=0;exitY=1;exitDx=0;exitDy=0;fontSize=12;startSize=8;endSize=8;" edge="1" parent="1" source="KOvkqLLY6F_9uL95dlx_-1" target="KOvkqLLY6F_9uL95dlx_-1">
          <mxGeometry relative="1" as="geometry" />
        </mxCell>
        <mxCell id="KOvkqLLY6F_9uL95dlx_-9" style="edgeStyle=none;curved=1;rounded=0;orthogonalLoop=1;jettySize=auto;html=1;exitX=1;exitY=1;exitDx=0;exitDy=0;fontSize=12;startSize=8;endSize=8;" edge="1" parent="1" source="KOvkqLLY6F_9uL95dlx_-1" target="KOvkqLLY6F_9uL95dlx_-1">
          <mxGeometry relative="1" as="geometry" />
        </mxCell>
        <mxCell id="KOvkqLLY6F_9uL95dlx_-10" value="&amp;lt;&amp;lt;include&amp;gt;&amp;gt;" style="text;html=1;align=center;verticalAlign=middle;whiteSpace=wrap;rounded=0;fontSize=16;" vertex="1" parent="1">
          <mxGeometry x="703" y="80" width="60" height="30" as="geometry" />
        </mxCell>
        <mxCell id="KOvkqLLY6F_9uL95dlx_-18" style="edgeStyle=none;curved=1;rounded=0;orthogonalLoop=1;jettySize=auto;html=1;exitX=1;exitY=0.5;exitDx=0;exitDy=0;fontSize=12;startSize=8;endSize=8;dashed=1;" edge="1" parent="1" source="KOvkqLLY6F_9uL95dlx_-19" target="KOvkqLLY6F_9uL95dlx_-7">
          <mxGeometry relative="1" as="geometry" />
        </mxCell>
        <mxCell id="KOvkqLLY6F_9uL95dlx_-19" value="Validar OV" style="ellipse;whiteSpace=wrap;html=1;" vertex="1" parent="1">
          <mxGeometry x="673" y="103" width="120" height="80" as="geometry" />
        </mxCell>
      </root>
    </mxGraphModel>
  </diagram>
  <diagram id="XgSA-sX2PwMJP4cu7tUa" name="Página-4">
    <mxGraphModel dx="1067" dy="714" grid="0" gridSize="10" guides="1" tooltips="1" connect="1" arrows="1" fold="1" page="0" pageScale="1" pageWidth="827" pageHeight="1169" math="0" shadow="0">
      <root>
        <mxCell id="0" />
        <mxCell id="1" parent="0" />
        <mxCell id="mEgK73MLUJy4nhQDTHpk-1" value="" style="rounded=0;whiteSpace=wrap;html=1;" vertex="1" parent="1">
          <mxGeometry x="659" y="33" width="432" height="609" as="geometry" />
        </mxCell>
        <mxCell id="0KO-85xoUP5FZCm9HeqR-5" style="edgeStyle=none;curved=1;rounded=0;orthogonalLoop=1;jettySize=auto;html=1;exitX=1;exitY=0.3333333333333333;exitDx=0;exitDy=0;exitPerimeter=0;entryX=0;entryY=0.5;entryDx=0;entryDy=0;fontSize=12;startSize=8;endSize=8;" edge="1" parent="1" source="mEgK73MLUJy4nhQDTHpk-4" target="mEgK73MLUJy4nhQDTHpk-7">
          <mxGeometry relative="1" as="geometry" />
        </mxCell>
        <mxCell id="0KO-85xoUP5FZCm9HeqR-7" style="edgeStyle=none;curved=1;rounded=0;orthogonalLoop=1;jettySize=auto;html=1;exitX=1;exitY=0.3333333333333333;exitDx=0;exitDy=0;exitPerimeter=0;entryX=0;entryY=0;entryDx=0;entryDy=0;fontSize=12;startSize=8;endSize=8;" edge="1" parent="1" source="mEgK73MLUJy4nhQDTHpk-4" target="0KO-85xoUP5FZCm9HeqR-1">
          <mxGeometry relative="1" as="geometry">
            <Array as="points">
              <mxPoint x="695" y="264" />
            </Array>
          </mxGeometry>
        </mxCell>
        <mxCell id="0KO-85xoUP5FZCm9HeqR-8" style="edgeStyle=none;curved=1;rounded=0;orthogonalLoop=1;jettySize=auto;html=1;exitX=1;exitY=0.3333333333333333;exitDx=0;exitDy=0;exitPerimeter=0;entryX=0;entryY=0.5;entryDx=0;entryDy=0;fontSize=12;startSize=8;endSize=8;" edge="1" parent="1" source="mEgK73MLUJy4nhQDTHpk-4" target="mEgK73MLUJy4nhQDTHpk-15">
          <mxGeometry relative="1" as="geometry">
            <Array as="points">
              <mxPoint x="647" y="429" />
            </Array>
          </mxGeometry>
        </mxCell>
        <mxCell id="0KO-85xoUP5FZCm9HeqR-9" style="edgeStyle=none;curved=1;rounded=0;orthogonalLoop=1;jettySize=auto;html=1;exitX=1;exitY=0.3333333333333333;exitDx=0;exitDy=0;exitPerimeter=0;entryX=0;entryY=0.5;entryDx=0;entryDy=0;fontSize=12;startSize=8;endSize=8;" edge="1" parent="1" source="mEgK73MLUJy4nhQDTHpk-4" target="0KO-85xoUP5FZCm9HeqR-2">
          <mxGeometry relative="1" as="geometry">
            <Array as="points">
              <mxPoint x="603" y="445" />
            </Array>
          </mxGeometry>
        </mxCell>
        <mxCell id="mEgK73MLUJy4nhQDTHpk-4" value="Usuário" style="shape=umlActor;verticalLabelPosition=bottom;verticalAlign=top;html=1;outlineConnect=0;" vertex="1" parent="1">
          <mxGeometry x="518" y="269" width="30" height="60" as="geometry" />
        </mxCell>
        <mxCell id="mEgK73MLUJy4nhQDTHpk-5" value="Gestão da Carteira de Ações" style="text;html=1;align=center;verticalAlign=middle;whiteSpace=wrap;rounded=0;fontSize=25;strokeWidth=1;" vertex="1" parent="1">
          <mxGeometry x="602" y="35" width="480" height="30" as="geometry" />
        </mxCell>
        <mxCell id="mEgK73MLUJy4nhQDTHpk-7" value="Visualizar e Gerenciar a Carteira de Ações" style="ellipse;whiteSpace=wrap;html=1;" vertex="1" parent="1">
          <mxGeometry x="823" y="154" width="120" height="80" as="geometry" />
        </mxCell>
        <mxCell id="mEgK73MLUJy4nhQDTHpk-8" style="edgeStyle=none;curved=1;rounded=0;orthogonalLoop=1;jettySize=auto;html=1;exitX=0;exitY=1;exitDx=0;exitDy=0;fontSize=12;startSize=8;endSize=8;" edge="1" parent="1" source="mEgK73MLUJy4nhQDTHpk-1" target="mEgK73MLUJy4nhQDTHpk-1">
          <mxGeometry relative="1" as="geometry" />
        </mxCell>
        <mxCell id="mEgK73MLUJy4nhQDTHpk-9" style="edgeStyle=none;curved=1;rounded=0;orthogonalLoop=1;jettySize=auto;html=1;exitX=1;exitY=1;exitDx=0;exitDy=0;fontSize=12;startSize=8;endSize=8;" edge="1" parent="1" source="mEgK73MLUJy4nhQDTHpk-1" target="mEgK73MLUJy4nhQDTHpk-1">
          <mxGeometry relative="1" as="geometry" />
        </mxCell>
        <mxCell id="mEgK73MLUJy4nhQDTHpk-10" value="&amp;lt;&amp;lt;extend&amp;gt;&amp;gt;" style="text;html=1;align=center;verticalAlign=middle;whiteSpace=wrap;rounded=0;fontSize=16;" vertex="1" parent="1">
          <mxGeometry x="710" y="287" width="60" height="30" as="geometry" />
        </mxCell>
        <mxCell id="mEgK73MLUJy4nhQDTHpk-15" value="Consultar Histórico de Transação" style="ellipse;whiteSpace=wrap;html=1;" vertex="1" parent="1">
          <mxGeometry x="823" y="377" width="120" height="80" as="geometry" />
        </mxCell>
        <mxCell id="0KO-85xoUP5FZCm9HeqR-13" style="edgeStyle=none;curved=1;rounded=0;orthogonalLoop=1;jettySize=auto;html=1;exitX=0;exitY=0.3333333333333333;exitDx=0;exitDy=0;exitPerimeter=0;entryX=1;entryY=0.5;entryDx=0;entryDy=0;fontSize=12;startSize=8;endSize=8;" edge="1" parent="1" source="mEgK73MLUJy4nhQDTHpk-17" target="0KO-85xoUP5FZCm9HeqR-1">
          <mxGeometry relative="1" as="geometry" />
        </mxCell>
        <mxCell id="JLK-ZXgM3kVo7HJ5tPqw-1" style="edgeStyle=none;curved=1;rounded=0;orthogonalLoop=1;jettySize=auto;html=1;exitX=0;exitY=0.3333333333333333;exitDx=0;exitDy=0;exitPerimeter=0;entryX=1;entryY=0.5;entryDx=0;entryDy=0;fontSize=12;startSize=8;endSize=8;" edge="1" parent="1" source="mEgK73MLUJy4nhQDTHpk-17" target="mEgK73MLUJy4nhQDTHpk-7">
          <mxGeometry relative="1" as="geometry" />
        </mxCell>
        <mxCell id="mEgK73MLUJy4nhQDTHpk-17" value="API da B3" style="shape=umlActor;verticalLabelPosition=bottom;verticalAlign=top;html=1;outlineConnect=0;" vertex="1" parent="1">
          <mxGeometry x="1179" y="352" width="30" height="60" as="geometry" />
        </mxCell>
        <mxCell id="0KO-85xoUP5FZCm9HeqR-1" value="Vender e Comprar Ações" style="ellipse;whiteSpace=wrap;html=1;" vertex="1" parent="1">
          <mxGeometry x="823" y="280" width="120" height="80" as="geometry" />
        </mxCell>
        <mxCell id="0KO-85xoUP5FZCm9HeqR-2" value="Simular Opções de Negócios" style="ellipse;whiteSpace=wrap;html=1;" vertex="1" parent="1">
          <mxGeometry x="823" y="474" width="120" height="80" as="geometry" />
        </mxCell>
        <mxCell id="0KO-85xoUP5FZCm9HeqR-4" style="edgeStyle=none;curved=1;rounded=0;orthogonalLoop=1;jettySize=auto;html=1;exitX=1;exitY=0;exitDx=0;exitDy=0;entryX=0;entryY=0.5;entryDx=0;entryDy=0;fontSize=12;startSize=8;endSize=8;dashed=1;" edge="1" parent="1" source="0KO-85xoUP5FZCm9HeqR-3" target="0KO-85xoUP5FZCm9HeqR-1">
          <mxGeometry relative="1" as="geometry" />
        </mxCell>
        <mxCell id="0KO-85xoUP5FZCm9HeqR-3" value="Configurar Alertas de Cotações" style="ellipse;whiteSpace=wrap;html=1;" vertex="1" parent="1">
          <mxGeometry x="680" y="317" width="120" height="80" as="geometry" />
        </mxCell>
      </root>
    </mxGraphModel>
  </diagram>
  <diagram id="BQDoGcwYxQhPeGVqKO7v" name="Página-5">
    <mxGraphModel dx="1381" dy="867" grid="0" gridSize="10" guides="1" tooltips="1" connect="1" arrows="1" fold="1" page="0" pageScale="1" pageWidth="827" pageHeight="1169" math="0" shadow="0">
      <root>
        <mxCell id="0" />
        <mxCell id="1" parent="0" />
        <mxCell id="U9OkhdCvIJdspzqXYI37-1" value="" style="rounded=0;whiteSpace=wrap;html=1;" vertex="1" parent="1">
          <mxGeometry x="659" y="33" width="432" height="609" as="geometry" />
        </mxCell>
        <mxCell id="U9OkhdCvIJdspzqXYI37-2" style="edgeStyle=none;curved=1;rounded=0;orthogonalLoop=1;jettySize=auto;html=1;exitX=1;exitY=0.3333333333333333;exitDx=0;exitDy=0;exitPerimeter=0;entryX=0;entryY=0.5;entryDx=0;entryDy=0;fontSize=12;startSize=8;endSize=8;" edge="1" parent="1" source="U9OkhdCvIJdspzqXYI37-4" target="U9OkhdCvIJdspzqXYI37-7">
          <mxGeometry relative="1" as="geometry" />
        </mxCell>
        <mxCell id="U9OkhdCvIJdspzqXYI37-3" style="edgeStyle=none;curved=1;rounded=0;orthogonalLoop=1;jettySize=auto;html=1;exitX=1;exitY=0.3333333333333333;exitDx=0;exitDy=0;exitPerimeter=0;entryX=0;entryY=0.5;entryDx=0;entryDy=0;fontSize=12;startSize=8;endSize=8;" edge="1" parent="1" source="U9OkhdCvIJdspzqXYI37-4" target="U9OkhdCvIJdspzqXYI37-6">
          <mxGeometry relative="1" as="geometry" />
        </mxCell>
        <mxCell id="U9OkhdCvIJdspzqXYI37-4" value="Usuário" style="shape=umlActor;verticalLabelPosition=bottom;verticalAlign=top;html=1;outlineConnect=0;" vertex="1" parent="1">
          <mxGeometry x="518" y="269" width="30" height="60" as="geometry" />
        </mxCell>
        <mxCell id="U9OkhdCvIJdspzqXYI37-5" value="&lt;font style=&quot;font-size: 17px;&quot;&gt;Funcionalidades Adicionais e Suporte ao Usuário&lt;/font&gt;" style="text;html=1;align=center;verticalAlign=middle;whiteSpace=wrap;rounded=0;fontSize=25;strokeWidth=1;" vertex="1" parent="1">
          <mxGeometry x="581" y="33" width="546" height="41" as="geometry" />
        </mxCell>
        <mxCell id="U9OkhdCvIJdspzqXYI37-6" value="Consultar Ordens de Venda (OV)" style="ellipse;whiteSpace=wrap;html=1;" vertex="1" parent="1">
          <mxGeometry x="815" y="305" width="120" height="80" as="geometry" />
        </mxCell>
        <mxCell id="U9OkhdCvIJdspzqXYI37-7" value="Grá" style="ellipse;whiteSpace=wrap;html=1;" vertex="1" parent="1">
          <mxGeometry x="819" y="164" width="120" height="80" as="geometry" />
        </mxCell>
        <mxCell id="U9OkhdCvIJdspzqXYI37-8" style="edgeStyle=none;curved=1;rounded=0;orthogonalLoop=1;jettySize=auto;html=1;exitX=0;exitY=1;exitDx=0;exitDy=0;fontSize=12;startSize=8;endSize=8;" edge="1" parent="1" source="U9OkhdCvIJdspzqXYI37-1" target="U9OkhdCvIJdspzqXYI37-1">
          <mxGeometry relative="1" as="geometry" />
        </mxCell>
        <mxCell id="U9OkhdCvIJdspzqXYI37-9" style="edgeStyle=none;curved=1;rounded=0;orthogonalLoop=1;jettySize=auto;html=1;exitX=1;exitY=1;exitDx=0;exitDy=0;fontSize=12;startSize=8;endSize=8;" edge="1" parent="1" source="U9OkhdCvIJdspzqXYI37-1" target="U9OkhdCvIJdspzqXYI37-1">
          <mxGeometry relative="1" as="geometry" />
        </mxCell>
        <mxCell id="U9OkhdCvIJdspzqXYI37-10" value="&amp;lt;&amp;lt;include&amp;gt;&amp;gt;" style="text;html=1;align=center;verticalAlign=middle;whiteSpace=wrap;rounded=0;fontSize=16;" vertex="1" parent="1">
          <mxGeometry x="703" y="80" width="60" height="30" as="geometry" />
        </mxCell>
        <mxCell id="U9OkhdCvIJdspzqXYI37-15" value="Integração com a B3" style="ellipse;whiteSpace=wrap;html=1;" vertex="1" parent="1">
          <mxGeometry x="815" y="449" width="120" height="80" as="geometry" />
        </mxCell>
        <mxCell id="U9OkhdCvIJdspzqXYI37-18" style="edgeStyle=none;curved=1;rounded=0;orthogonalLoop=1;jettySize=auto;html=1;exitX=1;exitY=0.5;exitDx=0;exitDy=0;fontSize=12;startSize=8;endSize=8;dashed=1;" edge="1" parent="1" source="U9OkhdCvIJdspzqXYI37-19" target="U9OkhdCvIJdspzqXYI37-7">
          <mxGeometry relative="1" as="geometry" />
        </mxCell>
        <mxCell id="U9OkhdCvIJdspzqXYI37-19" value="Validar OV" style="ellipse;whiteSpace=wrap;html=1;" vertex="1" parent="1">
          <mxGeometry x="673" y="103" width="120" height="80" as="geometry" />
        </mxCell>
      </root>
    </mxGraphModel>
  </diagram>
  <diagram id="SVYkHAsU40kteMUPGyOd" name="Página-6">
    <mxGraphModel dx="525" dy="578" grid="0" gridSize="10" guides="1" tooltips="1" connect="1" arrows="1" fold="1" page="0" pageScale="1" pageWidth="827" pageHeight="1169" math="0" shadow="0">
      <root>
        <mxCell id="0" />
        <mxCell id="1" parent="0" />
        <mxCell id="aeGuhjaKVVvcBTq1vn2t-1" value="" style="rounded=0;whiteSpace=wrap;html=1;" vertex="1" parent="1">
          <mxGeometry x="659" y="33" width="432" height="609" as="geometry" />
        </mxCell>
        <mxCell id="aeGuhjaKVVvcBTq1vn2t-2" style="edgeStyle=none;curved=1;rounded=0;orthogonalLoop=1;jettySize=auto;html=1;exitX=1;exitY=0.3333333333333333;exitDx=0;exitDy=0;exitPerimeter=0;entryX=0;entryY=0.5;entryDx=0;entryDy=0;fontSize=12;startSize=8;endSize=8;" edge="1" parent="1" source="aeGuhjaKVVvcBTq1vn2t-4" target="aeGuhjaKVVvcBTq1vn2t-7">
          <mxGeometry relative="1" as="geometry" />
        </mxCell>
        <mxCell id="aeGuhjaKVVvcBTq1vn2t-3" style="edgeStyle=none;curved=1;rounded=0;orthogonalLoop=1;jettySize=auto;html=1;exitX=1;exitY=0.3333333333333333;exitDx=0;exitDy=0;exitPerimeter=0;entryX=0;entryY=0.5;entryDx=0;entryDy=0;fontSize=12;startSize=8;endSize=8;" edge="1" parent="1" source="aeGuhjaKVVvcBTq1vn2t-4" target="aeGuhjaKVVvcBTq1vn2t-6">
          <mxGeometry relative="1" as="geometry" />
        </mxCell>
        <mxCell id="aeGuhjaKVVvcBTq1vn2t-4" value="Usuário" style="shape=umlActor;verticalLabelPosition=bottom;verticalAlign=top;html=1;outlineConnect=0;" vertex="1" parent="1">
          <mxGeometry x="518" y="269" width="30" height="60" as="geometry" />
        </mxCell>
        <mxCell id="aeGuhjaKVVvcBTq1vn2t-5" value="Gestão da Carteira de Ações" style="text;html=1;align=center;verticalAlign=middle;whiteSpace=wrap;rounded=0;fontSize=25;strokeWidth=1;" vertex="1" parent="1">
          <mxGeometry x="602" y="35" width="480" height="30" as="geometry" />
        </mxCell>
        <mxCell id="aeGuhjaKVVvcBTq1vn2t-6" value="Consultar Ordens de Venda (OV)" style="ellipse;whiteSpace=wrap;html=1;" vertex="1" parent="1">
          <mxGeometry x="815" y="305" width="120" height="80" as="geometry" />
        </mxCell>
        <mxCell id="aeGuhjaKVVvcBTq1vn2t-7" value="Gerenciar Ordens de Venda (OV)" style="ellipse;whiteSpace=wrap;html=1;" vertex="1" parent="1">
          <mxGeometry x="819" y="164" width="120" height="80" as="geometry" />
        </mxCell>
        <mxCell id="aeGuhjaKVVvcBTq1vn2t-8" style="edgeStyle=none;curved=1;rounded=0;orthogonalLoop=1;jettySize=auto;html=1;exitX=0;exitY=1;exitDx=0;exitDy=0;fontSize=12;startSize=8;endSize=8;" edge="1" parent="1" source="aeGuhjaKVVvcBTq1vn2t-1" target="aeGuhjaKVVvcBTq1vn2t-1">
          <mxGeometry relative="1" as="geometry" />
        </mxCell>
        <mxCell id="aeGuhjaKVVvcBTq1vn2t-9" style="edgeStyle=none;curved=1;rounded=0;orthogonalLoop=1;jettySize=auto;html=1;exitX=1;exitY=1;exitDx=0;exitDy=0;fontSize=12;startSize=8;endSize=8;" edge="1" parent="1" source="aeGuhjaKVVvcBTq1vn2t-1" target="aeGuhjaKVVvcBTq1vn2t-1">
          <mxGeometry relative="1" as="geometry" />
        </mxCell>
        <mxCell id="aeGuhjaKVVvcBTq1vn2t-10" value="&amp;lt;&amp;lt;include&amp;gt;&amp;gt;" style="text;html=1;align=center;verticalAlign=middle;whiteSpace=wrap;rounded=0;fontSize=16;" vertex="1" parent="1">
          <mxGeometry x="703" y="80" width="60" height="30" as="geometry" />
        </mxCell>
        <mxCell id="aeGuhjaKVVvcBTq1vn2t-11" style="edgeStyle=none;curved=1;rounded=0;orthogonalLoop=1;jettySize=auto;html=1;exitX=0;exitY=0.3333333333333333;exitDx=0;exitDy=0;exitPerimeter=0;fontSize=12;startSize=8;endSize=8;" edge="1" parent="1" source="aeGuhjaKVVvcBTq1vn2t-14" target="aeGuhjaKVVvcBTq1vn2t-7">
          <mxGeometry relative="1" as="geometry" />
        </mxCell>
        <mxCell id="aeGuhjaKVVvcBTq1vn2t-12" style="edgeStyle=none;curved=1;rounded=0;orthogonalLoop=1;jettySize=auto;html=1;exitX=0;exitY=0.3333333333333333;exitDx=0;exitDy=0;exitPerimeter=0;entryX=1;entryY=0.5;entryDx=0;entryDy=0;fontSize=12;startSize=8;endSize=8;" edge="1" parent="1" source="aeGuhjaKVVvcBTq1vn2t-14" target="aeGuhjaKVVvcBTq1vn2t-6">
          <mxGeometry relative="1" as="geometry" />
        </mxCell>
        <mxCell id="aeGuhjaKVVvcBTq1vn2t-13" style="edgeStyle=none;curved=1;rounded=0;orthogonalLoop=1;jettySize=auto;html=1;exitX=0;exitY=0.3333333333333333;exitDx=0;exitDy=0;exitPerimeter=0;entryX=1;entryY=0.5;entryDx=0;entryDy=0;fontSize=12;startSize=8;endSize=8;" edge="1" parent="1" source="aeGuhjaKVVvcBTq1vn2t-14" target="aeGuhjaKVVvcBTq1vn2t-15">
          <mxGeometry relative="1" as="geometry">
            <Array as="points">
              <mxPoint x="1023" y="320" />
            </Array>
          </mxGeometry>
        </mxCell>
        <mxCell id="aeGuhjaKVVvcBTq1vn2t-14" value="Sistema Home Broker" style="shape=umlActor;verticalLabelPosition=bottom;verticalAlign=top;html=1;outlineConnect=0;" vertex="1" parent="1">
          <mxGeometry x="1179" y="146" width="30" height="60" as="geometry" />
        </mxCell>
        <mxCell id="aeGuhjaKVVvcBTq1vn2t-15" value="Integração com a B3" style="ellipse;whiteSpace=wrap;html=1;" vertex="1" parent="1">
          <mxGeometry x="815" y="449" width="120" height="80" as="geometry" />
        </mxCell>
        <mxCell id="aeGuhjaKVVvcBTq1vn2t-16" style="edgeStyle=none;curved=1;rounded=0;orthogonalLoop=1;jettySize=auto;html=1;exitX=0;exitY=0.3333333333333333;exitDx=0;exitDy=0;exitPerimeter=0;entryX=1;entryY=0.5;entryDx=0;entryDy=0;fontSize=12;startSize=8;endSize=8;" edge="1" parent="1" source="aeGuhjaKVVvcBTq1vn2t-17" target="aeGuhjaKVVvcBTq1vn2t-15">
          <mxGeometry relative="1" as="geometry" />
        </mxCell>
        <mxCell id="aeGuhjaKVVvcBTq1vn2t-17" value="API da B3" style="shape=umlActor;verticalLabelPosition=bottom;verticalAlign=top;html=1;outlineConnect=0;" vertex="1" parent="1">
          <mxGeometry x="1179" y="352" width="30" height="60" as="geometry" />
        </mxCell>
        <mxCell id="aeGuhjaKVVvcBTq1vn2t-18" style="edgeStyle=none;curved=1;rounded=0;orthogonalLoop=1;jettySize=auto;html=1;exitX=1;exitY=0.5;exitDx=0;exitDy=0;fontSize=12;startSize=8;endSize=8;dashed=1;" edge="1" parent="1" source="aeGuhjaKVVvcBTq1vn2t-19" target="aeGuhjaKVVvcBTq1vn2t-7">
          <mxGeometry relative="1" as="geometry" />
        </mxCell>
        <mxCell id="aeGuhjaKVVvcBTq1vn2t-19" value="Validar OV" style="ellipse;whiteSpace=wrap;html=1;" vertex="1" parent="1">
          <mxGeometry x="673" y="103" width="120" height="80" as="geometry" />
        </mxCell>
      </root>
    </mxGraphModel>
  </diagram>
  <diagram id="XFjCunbhfHUrc_Kds5_V" name="Página-7">
    <mxGraphModel dx="2143" dy="928" grid="0" gridSize="10" guides="1" tooltips="1" connect="1" arrows="1" fold="1" page="0" pageScale="1" pageWidth="827" pageHeight="1169" math="0" shadow="0">
      <root>
        <mxCell id="0" />
        <mxCell id="1" parent="0" />
        <mxCell id="BtlCBsfIH0ALJilUzKAf-130" value="" style="verticalLabelPosition=bottom;verticalAlign=top;html=1;shape=mxgraph.basic.rect;fillColor2=none;strokeWidth=1;size=20;indent=5;" vertex="1" parent="1">
          <mxGeometry x="662" y="464" width="557" height="476" as="geometry" />
        </mxCell>
        <mxCell id="BtlCBsfIH0ALJilUzKAf-129" value="" style="verticalLabelPosition=bottom;verticalAlign=top;html=1;shape=mxgraph.basic.rect;fillColor2=none;strokeWidth=1;size=20;indent=5;" vertex="1" parent="1">
          <mxGeometry x="2" y="81" width="570" height="538" as="geometry" />
        </mxCell>
        <mxCell id="BtlCBsfIH0ALJilUzKAf-128" value="" style="verticalLabelPosition=bottom;verticalAlign=top;html=1;shape=mxgraph.basic.rect;fillColor2=none;strokeWidth=1;size=20;indent=5;" vertex="1" parent="1">
          <mxGeometry x="-32" y="655" width="620" height="596" as="geometry" />
        </mxCell>
        <mxCell id="BtlCBsfIH0ALJilUzKAf-102" value="" style="verticalLabelPosition=bottom;verticalAlign=top;html=1;shape=mxgraph.basic.rect;fillColor2=none;strokeWidth=1;size=20;indent=5;" vertex="1" parent="1">
          <mxGeometry x="668" y="81" width="562" height="300" as="geometry" />
        </mxCell>
        <mxCell id="1sjx6QfUH2LazkW_bVXW-22" value="Usuário" style="shape=table;childLayout=tableLayout;startSize=40;collapsible=0;recursiveResize=0;expand=0;" vertex="1" parent="1">
          <mxGeometry x="320" y="149" width="160" height="161" as="geometry" />
        </mxCell>
        <mxCell id="1sjx6QfUH2LazkW_bVXW-23" value="" style="shape=tableRow;horizontal=0;swimlaneHead=0;swimlaneBody=0;top=0;left=0;strokeColor=inherit;bottom=0;right=0;dropTarget=0;fontStyle=0;fillColor=none;points=[[0,0.5],[1,0.5]];portConstraint=eastwest;startSize=0;collapsible=0;recursiveResize=0;expand=0;" vertex="1" parent="1sjx6QfUH2LazkW_bVXW-22">
          <mxGeometry y="40" width="160" height="121" as="geometry" />
        </mxCell>
        <mxCell id="1sjx6QfUH2LazkW_bVXW-24" value="id: int&#xa;nome: string&#xa;email: string&#xa;senha: string&#xa;dataCadastro: Date&#xa;statusCadastro: string" style="swimlane;swimlaneHead=0;swimlaneBody=0;fontStyle=0;strokeColor=inherit;connectable=0;fillColor=none;startSize=67;collapsible=0;recursiveResize=0;expand=0;fontSize=9;align=left;" vertex="1" parent="1sjx6QfUH2LazkW_bVXW-23">
          <mxGeometry width="160" height="121" as="geometry">
            <mxRectangle width="160" height="121" as="alternateBounds" />
          </mxGeometry>
        </mxCell>
        <mxCell id="1sjx6QfUH2LazkW_bVXW-50" value="&lt;div style=&quot;font-size: 9px;&quot;&gt;&lt;font style=&quot;font-size: 9px;&quot;&gt;atualizarPerfil()&lt;/font&gt;&lt;/div&gt;&lt;div style=&quot;font-size: 9px;&quot;&gt;&lt;font style=&quot;font-size: 9px;&quot;&gt;validarDados()&lt;/font&gt;&lt;/div&gt;&lt;div style=&quot;font-size: 9px;&quot;&gt;&lt;font style=&quot;font-size: 9px;&quot;&gt;enviarParaAprovacao()&lt;/font&gt;&lt;/div&gt;" style="text;html=1;align=left;verticalAlign=middle;resizable=0;points=[];autosize=1;strokeColor=none;fillColor=none;" vertex="1" parent="1sjx6QfUH2LazkW_bVXW-24">
          <mxGeometry y="73" width="111" height="44" as="geometry" />
        </mxCell>
        <mxCell id="1sjx6QfUH2LazkW_bVXW-28" value="Usuario" style="shape=table;childLayout=tableLayout;startSize=40;collapsible=0;recursiveResize=0;expand=0;" vertex="1" parent="1">
          <mxGeometry x="714" y="171" width="160" height="160" as="geometry" />
        </mxCell>
        <mxCell id="1sjx6QfUH2LazkW_bVXW-29" value="" style="shape=tableRow;horizontal=0;swimlaneHead=0;swimlaneBody=0;top=0;left=0;strokeColor=inherit;bottom=0;right=0;dropTarget=0;fontStyle=0;fillColor=none;points=[[0,0.5],[1,0.5]];portConstraint=eastwest;startSize=0;collapsible=0;recursiveResize=0;expand=0;" vertex="1" parent="1sjx6QfUH2LazkW_bVXW-28">
          <mxGeometry y="40" width="160" height="120" as="geometry" />
        </mxCell>
        <mxCell id="1sjx6QfUH2LazkW_bVXW-30" value="id: int&#xa;email: string&#xa;senha: string&#xa;ultimoLogin: Date&#xa;tentativasFalhas: int" style="swimlane;swimlaneHead=0;swimlaneBody=0;fontStyle=0;strokeColor=inherit;connectable=0;fillColor=none;startSize=67;collapsible=0;recursiveResize=0;expand=0;align=left;fontSize=10;" vertex="1" parent="1sjx6QfUH2LazkW_bVXW-29">
          <mxGeometry width="160" height="120" as="geometry">
            <mxRectangle width="160" height="120" as="alternateBounds" />
          </mxGeometry>
        </mxCell>
        <mxCell id="BtlCBsfIH0ALJilUzKAf-9" value="&lt;div style=&quot;font-size: 9px;&quot;&gt;&lt;font style=&quot;font-size: 9px;&quot;&gt;autenticar(email: string, senha: string)&lt;/font&gt;&lt;/div&gt;&lt;div style=&quot;font-size: 9px;&quot;&gt;&lt;font style=&quot;font-size: 9px;&quot;&gt;bloquearAcesso()&lt;/font&gt;&lt;/div&gt;&lt;div style=&quot;font-size: 9px;&quot;&gt;&lt;font style=&quot;font-size: 9px;&quot;&gt;resetarSenha()&lt;/font&gt;&lt;/div&gt;" style="text;html=1;align=left;verticalAlign=middle;resizable=0;points=[];autosize=1;strokeColor=none;fillColor=none;fontSize=9;" vertex="1" parent="1sjx6QfUH2LazkW_bVXW-30">
          <mxGeometry y="70" width="169" height="44" as="geometry" />
        </mxCell>
        <mxCell id="1sjx6QfUH2LazkW_bVXW-31" value="Ordem" style="shape=table;childLayout=tableLayout;startSize=40;collapsible=0;recursiveResize=0;expand=0;" vertex="1" parent="1">
          <mxGeometry x="40" y="726" width="160" height="160" as="geometry" />
        </mxCell>
        <mxCell id="1sjx6QfUH2LazkW_bVXW-32" value="" style="shape=tableRow;horizontal=0;swimlaneHead=0;swimlaneBody=0;top=0;left=0;strokeColor=inherit;bottom=0;right=0;dropTarget=0;fontStyle=0;fillColor=none;points=[[0,0.5],[1,0.5]];portConstraint=eastwest;startSize=0;collapsible=0;recursiveResize=0;expand=0;" vertex="1" parent="1sjx6QfUH2LazkW_bVXW-31">
          <mxGeometry y="40" width="160" height="120" as="geometry" />
        </mxCell>
        <mxCell id="1sjx6QfUH2LazkW_bVXW-33" value="id: int&#xa;tipoOrdem: string &#xa;quantidade: int&#xa;preco: float&#xa;status: string&#xa;dataCriacao: Date" style="swimlane;swimlaneHead=0;swimlaneBody=0;fontStyle=0;strokeColor=inherit;connectable=0;fillColor=none;startSize=67;collapsible=0;recursiveResize=0;expand=0;align=left;fontSize=9;" vertex="1" parent="1sjx6QfUH2LazkW_bVXW-32">
          <mxGeometry width="160" height="120" as="geometry">
            <mxRectangle width="160" height="120" as="alternateBounds" />
          </mxGeometry>
        </mxCell>
        <mxCell id="BtlCBsfIH0ALJilUzKAf-29" value="&lt;div style=&quot;font-size: 9px;&quot;&gt;&lt;font style=&quot;font-size: 9px;&quot;&gt;validarOrdem()&lt;/font&gt;&lt;/div&gt;&lt;div style=&quot;font-size: 9px;&quot;&gt;&lt;font style=&quot;font-size: 9px;&quot;&gt;enviarParaB3()&lt;/font&gt;&lt;/div&gt;&lt;div style=&quot;font-size: 9px;&quot;&gt;&lt;font style=&quot;font-size: 9px;&quot;&gt;modificarOrdem()&lt;/font&gt;&lt;/div&gt;&lt;div style=&quot;font-size: 9px;&quot;&gt;&lt;font style=&quot;font-size: 9px;&quot;&gt;cancelarOrdem()&lt;/font&gt;&lt;/div&gt;" style="text;html=1;align=left;verticalAlign=middle;resizable=0;points=[];autosize=1;strokeColor=none;fillColor=none;" vertex="1" parent="1sjx6QfUH2LazkW_bVXW-33">
          <mxGeometry x="-2" y="65" width="88" height="55" as="geometry" />
        </mxCell>
        <mxCell id="1sjx6QfUH2LazkW_bVXW-34" value="Cadastro" style="shape=table;childLayout=tableLayout;startSize=40;collapsible=0;recursiveResize=0;expand=0;" vertex="1" parent="1">
          <mxGeometry x="207" y="396" width="160" height="160" as="geometry" />
        </mxCell>
        <mxCell id="1sjx6QfUH2LazkW_bVXW-35" value="" style="shape=tableRow;horizontal=0;swimlaneHead=0;swimlaneBody=0;top=0;left=0;strokeColor=inherit;bottom=0;right=0;dropTarget=0;fontStyle=0;fillColor=none;points=[[0,0.5],[1,0.5]];portConstraint=eastwest;startSize=0;collapsible=0;recursiveResize=0;expand=0;" vertex="1" parent="1sjx6QfUH2LazkW_bVXW-34">
          <mxGeometry y="40" width="160" height="120" as="geometry" />
        </mxCell>
        <mxCell id="1sjx6QfUH2LazkW_bVXW-36" value="id: int&#xa;status: string&#xa;dataEnvio: Date&#xa;dataLiberacao: Date" style="swimlane;swimlaneHead=0;swimlaneBody=0;fontStyle=0;strokeColor=inherit;connectable=0;fillColor=none;startSize=67;collapsible=0;recursiveResize=0;expand=0;align=left;" vertex="1" parent="1sjx6QfUH2LazkW_bVXW-35">
          <mxGeometry width="160" height="120" as="geometry">
            <mxRectangle width="160" height="120" as="alternateBounds" />
          </mxGeometry>
        </mxCell>
        <mxCell id="1sjx6QfUH2LazkW_bVXW-53" value="&lt;div&gt;validarCadastro()&lt;/div&gt;&lt;div&gt;enviarParaSuporte()&lt;/div&gt;" style="text;html=1;align=left;verticalAlign=middle;resizable=0;points=[];autosize=1;strokeColor=none;fillColor=none;" vertex="1" parent="1sjx6QfUH2LazkW_bVXW-36">
          <mxGeometry y="72" width="126" height="41" as="geometry" />
        </mxCell>
        <mxCell id="1sjx6QfUH2LazkW_bVXW-37" value="Ação" style="shape=table;childLayout=tableLayout;startSize=40;collapsible=0;recursiveResize=0;expand=0;" vertex="1" parent="1">
          <mxGeometry x="40" y="963" width="160" height="160" as="geometry" />
        </mxCell>
        <mxCell id="1sjx6QfUH2LazkW_bVXW-38" value="" style="shape=tableRow;horizontal=0;swimlaneHead=0;swimlaneBody=0;top=0;left=0;strokeColor=inherit;bottom=0;right=0;dropTarget=0;fontStyle=0;fillColor=none;points=[[0,0.5],[1,0.5]];portConstraint=eastwest;startSize=0;collapsible=0;recursiveResize=0;expand=0;" vertex="1" parent="1sjx6QfUH2LazkW_bVXW-37">
          <mxGeometry y="40" width="160" height="120" as="geometry" />
        </mxCell>
        <mxCell id="1sjx6QfUH2LazkW_bVXW-39" value="ticker: string&#xa;precoAtual: float&#xa;quantidade: int" style="swimlane;swimlaneHead=0;swimlaneBody=0;fontStyle=0;strokeColor=inherit;connectable=0;fillColor=none;startSize=67;collapsible=0;recursiveResize=0;expand=0;align=left;" vertex="1" parent="1sjx6QfUH2LazkW_bVXW-38">
          <mxGeometry width="160" height="120" as="geometry">
            <mxRectangle width="160" height="120" as="alternateBounds" />
          </mxGeometry>
        </mxCell>
        <mxCell id="1sjx6QfUH2LazkW_bVXW-40" value="Suporte" style="shape=table;childLayout=tableLayout;startSize=40;collapsible=0;recursiveResize=0;expand=0;" vertex="1" parent="1">
          <mxGeometry x="13" y="153" width="159.29163869222012" height="146.14999389648438" as="geometry" />
        </mxCell>
        <mxCell id="1sjx6QfUH2LazkW_bVXW-41" value="" style="shape=tableRow;horizontal=0;swimlaneHead=0;swimlaneBody=0;top=0;left=0;strokeColor=inherit;bottom=0;right=0;dropTarget=0;fontStyle=0;fillColor=none;points=[[0,0.5],[1,0.5]];portConstraint=eastwest;startSize=0;collapsible=0;recursiveResize=0;expand=0;" vertex="1" parent="1sjx6QfUH2LazkW_bVXW-40">
          <mxGeometry y="40" width="159.29163869222012" height="106" as="geometry" />
        </mxCell>
        <mxCell id="1sjx6QfUH2LazkW_bVXW-42" value="id: int&#xa;nome: string&#xa;nivelAcesso: string" style="swimlane;swimlaneHead=0;swimlaneBody=0;fontStyle=0;strokeColor=inherit;connectable=0;fillColor=none;startSize=67;collapsible=0;recursiveResize=0;expand=0;align=left;" vertex="1" parent="1sjx6QfUH2LazkW_bVXW-41">
          <mxGeometry width="159" height="106" as="geometry">
            <mxRectangle width="159" height="106" as="alternateBounds" />
          </mxGeometry>
        </mxCell>
        <mxCell id="1sjx6QfUH2LazkW_bVXW-52" value="&lt;div style=&quot;font-size: 9px;&quot;&gt;&lt;font style=&quot;font-size: 9px;&quot;&gt;liberarCadastro(usuario: Usuario)&lt;/font&gt;&lt;/div&gt;&lt;div style=&quot;font-size: 9px;&quot;&gt;&lt;br&gt;&lt;/div&gt;" style="text;html=1;align=center;verticalAlign=middle;resizable=0;points=[];autosize=1;strokeColor=none;fillColor=none;" vertex="1" parent="1sjx6QfUH2LazkW_bVXW-42">
          <mxGeometry x="-8" y="76" width="151" height="34" as="geometry" />
        </mxCell>
        <mxCell id="1sjx6QfUH2LazkW_bVXW-43" value="Carteira" style="shape=table;childLayout=tableLayout;startSize=40;collapsible=0;recursiveResize=0;expand=0;" vertex="1" parent="1">
          <mxGeometry x="384" y="825" width="160" height="160" as="geometry" />
        </mxCell>
        <mxCell id="1sjx6QfUH2LazkW_bVXW-44" value="" style="shape=tableRow;horizontal=0;swimlaneHead=0;swimlaneBody=0;top=0;left=0;strokeColor=inherit;bottom=0;right=0;dropTarget=0;fontStyle=0;fillColor=none;points=[[0,0.5],[1,0.5]];portConstraint=eastwest;startSize=0;collapsible=0;recursiveResize=0;expand=0;" vertex="1" parent="1sjx6QfUH2LazkW_bVXW-43">
          <mxGeometry y="40" width="160" height="120" as="geometry" />
        </mxCell>
        <mxCell id="1sjx6QfUH2LazkW_bVXW-45" value="id: int&#xa;usuarioId: int&#xa;acoes: List[Ação]" style="swimlane;swimlaneHead=0;swimlaneBody=0;fontStyle=0;strokeColor=inherit;connectable=0;fillColor=none;startSize=67;collapsible=0;recursiveResize=0;expand=0;align=left;" vertex="1" parent="1sjx6QfUH2LazkW_bVXW-44">
          <mxGeometry width="160" height="120" as="geometry">
            <mxRectangle width="160" height="120" as="alternateBounds" />
          </mxGeometry>
        </mxCell>
        <mxCell id="BtlCBsfIH0ALJilUzKAf-33" value="&lt;div&gt;adicionarOrdem(Ordem)&lt;/div&gt;&lt;div&gt;consultarCarteira()&lt;/div&gt;" style="text;html=1;align=left;verticalAlign=middle;resizable=0;points=[];autosize=1;strokeColor=none;fillColor=none;" vertex="1" parent="1sjx6QfUH2LazkW_bVXW-45">
          <mxGeometry y="68" width="148" height="41" as="geometry" />
        </mxCell>
        <mxCell id="1sjx6QfUH2LazkW_bVXW-46" value="Sessão" style="shape=table;childLayout=tableLayout;startSize=40;collapsible=0;recursiveResize=0;expand=0;" vertex="1" parent="1">
          <mxGeometry x="1038" y="174" width="160" height="160" as="geometry" />
        </mxCell>
        <mxCell id="1sjx6QfUH2LazkW_bVXW-47" value="" style="shape=tableRow;horizontal=0;swimlaneHead=0;swimlaneBody=0;top=0;left=0;strokeColor=inherit;bottom=0;right=0;dropTarget=0;fontStyle=0;fillColor=none;points=[[0,0.5],[1,0.5]];portConstraint=eastwest;startSize=0;collapsible=0;recursiveResize=0;expand=0;" vertex="1" parent="1sjx6QfUH2LazkW_bVXW-46">
          <mxGeometry y="40" width="160" height="120" as="geometry" />
        </mxCell>
        <mxCell id="1sjx6QfUH2LazkW_bVXW-48" value="id: int&#xa;dataInicio: Date&#xa;dataFim: Date&#xa;usuarioId: int" style="swimlane;swimlaneHead=0;swimlaneBody=0;fontStyle=0;strokeColor=inherit;connectable=0;fillColor=none;startSize=67;collapsible=0;recursiveResize=0;expand=0;align=left;" vertex="1" parent="1sjx6QfUH2LazkW_bVXW-47">
          <mxGeometry width="160" height="120" as="geometry">
            <mxRectangle width="160" height="120" as="alternateBounds" />
          </mxGeometry>
        </mxCell>
        <mxCell id="BtlCBsfIH0ALJilUzKAf-10" value="&lt;div&gt;iniciarSessao()&lt;/div&gt;&lt;div style=&quot;&quot;&gt;encerrarSessao()&lt;/div&gt;" style="text;html=1;align=left;verticalAlign=middle;resizable=0;points=[];autosize=1;strokeColor=none;fillColor=none;" vertex="1" parent="1sjx6QfUH2LazkW_bVXW-48">
          <mxGeometry y="72" width="111" height="41" as="geometry" />
        </mxCell>
        <mxCell id="BtlCBsfIH0ALJilUzKAf-5" value="" style="endArrow=classic;html=1;rounded=0;exitX=1;exitY=1;exitDx=0;exitDy=0;entryX=0.25;entryY=0;entryDx=0;entryDy=0;" edge="1" parent="1" source="1sjx6QfUH2LazkW_bVXW-40" target="1sjx6QfUH2LazkW_bVXW-34">
          <mxGeometry relative="1" as="geometry">
            <mxPoint x="227" y="360" as="sourcePoint" />
            <mxPoint x="118" y="495" as="targetPoint" />
          </mxGeometry>
        </mxCell>
        <mxCell id="BtlCBsfIH0ALJilUzKAf-6" value="1" style="edgeLabel;resizable=0;html=1;;align=left;verticalAlign=bottom;" connectable="0" vertex="1" parent="BtlCBsfIH0ALJilUzKAf-5">
          <mxGeometry x="-1" relative="1" as="geometry">
            <mxPoint x="6" y="4" as="offset" />
          </mxGeometry>
        </mxCell>
        <mxCell id="BtlCBsfIH0ALJilUzKAf-7" value="*" style="edgeLabel;resizable=0;html=1;;align=right;verticalAlign=bottom;" connectable="0" vertex="1" parent="BtlCBsfIH0ALJilUzKAf-5">
          <mxGeometry x="1" relative="1" as="geometry">
            <mxPoint x="12" y="-10" as="offset" />
          </mxGeometry>
        </mxCell>
        <mxCell id="BtlCBsfIH0ALJilUzKAf-8" value="aprovar/rejeitar" style="edgeLabel;html=1;align=center;verticalAlign=middle;resizable=0;points=[];" vertex="1" connectable="0" parent="BtlCBsfIH0ALJilUzKAf-5">
          <mxGeometry x="-0.0544" y="-2" relative="1" as="geometry">
            <mxPoint x="-2" y="-6" as="offset" />
          </mxGeometry>
        </mxCell>
        <mxCell id="BtlCBsfIH0ALJilUzKAf-11" value="" style="endArrow=classic;html=1;rounded=0;exitX=1;exitY=0.5;exitDx=0;exitDy=0;entryX=0;entryY=0;entryDx=0;entryDy=0;" edge="1" parent="1" source="1sjx6QfUH2LazkW_bVXW-29" target="1sjx6QfUH2LazkW_bVXW-46">
          <mxGeometry relative="1" as="geometry">
            <mxPoint x="1031" y="249" as="sourcePoint" />
            <mxPoint x="998" y="335" as="targetPoint" />
          </mxGeometry>
        </mxCell>
        <mxCell id="BtlCBsfIH0ALJilUzKAf-12" value="1" style="edgeLabel;resizable=0;html=1;;align=left;verticalAlign=bottom;" connectable="0" vertex="1" parent="BtlCBsfIH0ALJilUzKAf-11">
          <mxGeometry x="-1" relative="1" as="geometry">
            <mxPoint x="12" y="-19" as="offset" />
          </mxGeometry>
        </mxCell>
        <mxCell id="BtlCBsfIH0ALJilUzKAf-13" value="*" style="edgeLabel;resizable=0;html=1;;align=right;verticalAlign=bottom;" connectable="0" vertex="1" parent="BtlCBsfIH0ALJilUzKAf-11">
          <mxGeometry x="1" relative="1" as="geometry">
            <mxPoint x="-15" y="-2" as="offset" />
          </mxGeometry>
        </mxCell>
        <mxCell id="BtlCBsfIH0ALJilUzKAf-34" value="&lt;div&gt;atualizarPreco()&lt;/div&gt;&lt;div&gt;consultarHistorico()&lt;/div&gt;" style="text;html=1;align=left;verticalAlign=middle;resizable=0;points=[];autosize=1;strokeColor=none;fillColor=none;" vertex="1" parent="1">
          <mxGeometry x="46" y="1075" width="121" height="41" as="geometry" />
        </mxCell>
        <mxCell id="BtlCBsfIH0ALJilUzKAf-36" value="API_B3" style="shape=table;childLayout=tableLayout;startSize=40;collapsible=0;recursiveResize=0;expand=0;" vertex="1" parent="1">
          <mxGeometry x="376" y="690" width="160" height="89.32259245841726" as="geometry" />
        </mxCell>
        <mxCell id="BtlCBsfIH0ALJilUzKAf-37" value="" style="shape=tableRow;horizontal=0;swimlaneHead=0;swimlaneBody=0;top=0;left=0;strokeColor=inherit;bottom=0;right=0;dropTarget=0;fontStyle=0;fillColor=none;points=[[0,0.5],[1,0.5]];portConstraint=eastwest;startSize=0;collapsible=0;recursiveResize=0;expand=0;" vertex="1" parent="BtlCBsfIH0ALJilUzKAf-36">
          <mxGeometry y="40" width="160" height="49" as="geometry" />
        </mxCell>
        <mxCell id="BtlCBsfIH0ALJilUzKAf-38" value="" style="swimlane;swimlaneHead=0;swimlaneBody=0;fontStyle=0;strokeColor=inherit;connectable=0;fillColor=none;startSize=12;collapsible=0;recursiveResize=0;expand=0;align=left;fontSize=9;" vertex="1" parent="BtlCBsfIH0ALJilUzKAf-37">
          <mxGeometry width="160" height="49" as="geometry">
            <mxRectangle width="160" height="49" as="alternateBounds" />
          </mxGeometry>
        </mxCell>
        <mxCell id="BtlCBsfIH0ALJilUzKAf-39" value="&lt;div style=&quot;font-size: 9px;&quot;&gt;&lt;div&gt;enviarOrdem(Ordem)&lt;/div&gt;&lt;div&gt;consultarStatusOrdem(Ordem)&lt;/div&gt;&lt;/div&gt;" style="text;html=1;align=left;verticalAlign=middle;resizable=0;points=[];autosize=1;strokeColor=none;fillColor=none;" vertex="1" parent="BtlCBsfIH0ALJilUzKAf-38">
          <mxGeometry x="3" y="15" width="141" height="34" as="geometry" />
        </mxCell>
        <mxCell id="BtlCBsfIH0ALJilUzKAf-41" value="Carteira" style="shape=table;childLayout=tableLayout;startSize=40;collapsible=0;recursiveResize=0;expand=0;" vertex="1" parent="1">
          <mxGeometry x="678" y="549" width="160" height="160" as="geometry" />
        </mxCell>
        <mxCell id="BtlCBsfIH0ALJilUzKAf-42" value="" style="shape=tableRow;horizontal=0;swimlaneHead=0;swimlaneBody=0;top=0;left=0;strokeColor=inherit;bottom=0;right=0;dropTarget=0;fontStyle=0;fillColor=none;points=[[0,0.5],[1,0.5]];portConstraint=eastwest;startSize=0;collapsible=0;recursiveResize=0;expand=0;" vertex="1" parent="BtlCBsfIH0ALJilUzKAf-41">
          <mxGeometry y="40" width="160" height="120" as="geometry" />
        </mxCell>
        <mxCell id="BtlCBsfIH0ALJilUzKAf-43" value="id: int&#xa;usuarioId: int&#xa;valorTotal: float" style="swimlane;swimlaneHead=0;swimlaneBody=0;fontStyle=0;strokeColor=inherit;connectable=0;fillColor=none;startSize=67;collapsible=0;recursiveResize=0;expand=0;align=left;fontSize=10;" vertex="1" parent="BtlCBsfIH0ALJilUzKAf-42">
          <mxGeometry width="160" height="120" as="geometry">
            <mxRectangle width="160" height="120" as="alternateBounds" />
          </mxGeometry>
        </mxCell>
        <mxCell id="BtlCBsfIH0ALJilUzKAf-44" value="&lt;div style=&quot;font-size: 9px;&quot;&gt;&lt;div&gt;consultarCarteira()&lt;/div&gt;&lt;div&gt;calcularValorTotal()&lt;/div&gt;&lt;/div&gt;" style="text;html=1;align=left;verticalAlign=middle;resizable=0;points=[];autosize=1;strokeColor=none;fillColor=none;fontSize=9;" vertex="1" parent="BtlCBsfIH0ALJilUzKAf-43">
          <mxGeometry y="75" width="94" height="34" as="geometry" />
        </mxCell>
        <mxCell id="BtlCBsfIH0ALJilUzKAf-45" value="Ação" style="shape=table;childLayout=tableLayout;startSize=40;collapsible=0;recursiveResize=0;expand=0;" vertex="1" parent="1">
          <mxGeometry x="979" y="582" width="160" height="160" as="geometry" />
        </mxCell>
        <mxCell id="BtlCBsfIH0ALJilUzKAf-46" value="" style="shape=tableRow;horizontal=0;swimlaneHead=0;swimlaneBody=0;top=0;left=0;strokeColor=inherit;bottom=0;right=0;dropTarget=0;fontStyle=0;fillColor=none;points=[[0,0.5],[1,0.5]];portConstraint=eastwest;startSize=0;collapsible=0;recursiveResize=0;expand=0;" vertex="1" parent="BtlCBsfIH0ALJilUzKAf-45">
          <mxGeometry y="40" width="160" height="120" as="geometry" />
        </mxCell>
        <mxCell id="BtlCBsfIH0ALJilUzKAf-47" value="ticker: string&#xa;quantidade: int&#xa;valorAtual: float" style="swimlane;swimlaneHead=0;swimlaneBody=0;fontStyle=0;strokeColor=inherit;connectable=0;fillColor=none;startSize=67;collapsible=0;recursiveResize=0;expand=0;align=left;fontSize=10;" vertex="1" parent="BtlCBsfIH0ALJilUzKAf-46">
          <mxGeometry width="160" height="120" as="geometry">
            <mxRectangle width="160" height="120" as="alternateBounds" />
          </mxGeometry>
        </mxCell>
        <mxCell id="BtlCBsfIH0ALJilUzKAf-48" value="&lt;div style=&quot;&quot;&gt;consultarPrecoAtual()&lt;br&gt;&lt;/div&gt;" style="text;html=1;align=left;verticalAlign=middle;resizable=0;points=[];autosize=1;strokeColor=none;fillColor=none;fontSize=9;" vertex="1" parent="BtlCBsfIH0ALJilUzKAf-47">
          <mxGeometry y="81" width="105" height="23" as="geometry" />
        </mxCell>
        <mxCell id="BtlCBsfIH0ALJilUzKAf-49" value="API_B3" style="shape=table;childLayout=tableLayout;startSize=40;collapsible=0;recursiveResize=0;expand=0;" vertex="1" parent="1">
          <mxGeometry x="703" y="798.3199999999999" width="160" height="115.45456025094711" as="geometry" />
        </mxCell>
        <mxCell id="BtlCBsfIH0ALJilUzKAf-50" value="" style="shape=tableRow;horizontal=0;swimlaneHead=0;swimlaneBody=0;top=0;left=0;strokeColor=inherit;bottom=0;right=0;dropTarget=0;fontStyle=0;fillColor=none;points=[[0,0.5],[1,0.5]];portConstraint=eastwest;startSize=0;collapsible=0;recursiveResize=0;expand=0;" vertex="1" parent="BtlCBsfIH0ALJilUzKAf-49">
          <mxGeometry y="40" width="160" height="75" as="geometry" />
        </mxCell>
        <mxCell id="BtlCBsfIH0ALJilUzKAf-51" value="" style="swimlane;swimlaneHead=0;swimlaneBody=0;fontStyle=0;strokeColor=inherit;connectable=0;fillColor=none;startSize=18;collapsible=0;recursiveResize=0;expand=0;align=left;fontSize=10;" vertex="1" parent="BtlCBsfIH0ALJilUzKAf-50">
          <mxGeometry width="160" height="75" as="geometry">
            <mxRectangle width="160" height="75" as="alternateBounds" />
          </mxGeometry>
        </mxCell>
        <mxCell id="BtlCBsfIH0ALJilUzKAf-52" value="&lt;div style=&quot;font-size: 9px;&quot;&gt;&lt;div&gt;atualizarCotacao(Acao)&lt;/div&gt;&lt;div&gt;&lt;br&gt;&lt;/div&gt;&lt;/div&gt;" style="text;html=1;align=left;verticalAlign=middle;resizable=0;points=[];autosize=1;strokeColor=none;fillColor=none;fontSize=9;" vertex="1" parent="BtlCBsfIH0ALJilUzKAf-51">
          <mxGeometry y="30.45" width="112" height="34" as="geometry" />
        </mxCell>
        <mxCell id="BtlCBsfIH0ALJilUzKAf-64" value="Gerenciar Cadastro de Usuário" style="text;html=1;align=center;verticalAlign=middle;resizable=0;points=[];autosize=1;strokeColor=none;fillColor=none;fontSize=18;" vertex="1" parent="1">
          <mxGeometry x="13" y="80" width="267" height="34" as="geometry" />
        </mxCell>
        <mxCell id="BtlCBsfIH0ALJilUzKAf-65" value="Autenticar Usuário" style="text;html=1;align=center;verticalAlign=middle;resizable=0;points=[];autosize=1;strokeColor=none;fillColor=none;fontSize=17;" vertex="1" parent="1">
          <mxGeometry x="689" y="96" width="158" height="32" as="geometry" />
        </mxCell>
        <mxCell id="BtlCBsfIH0ALJilUzKAf-66" value="Gerenciar Ordens de Compra/Venda (OC/OV)" style="text;html=1;align=center;verticalAlign=middle;resizable=0;points=[];autosize=1;strokeColor=none;fillColor=none;fontSize=16;" vertex="1" parent="1">
          <mxGeometry x="-26" y="662" width="345" height="31" as="geometry" />
        </mxCell>
        <mxCell id="BtlCBsfIH0ALJilUzKAf-67" value="&amp;nbsp;Visualizar e Gerenciar Carteira" style="text;html=1;align=center;verticalAlign=middle;resizable=0;points=[];autosize=1;strokeColor=none;fillColor=none;fontSize=16;" vertex="1" parent="1">
          <mxGeometry x="666" y="483" width="241" height="31" as="geometry" />
        </mxCell>
        <mxCell id="BtlCBsfIH0ALJilUzKAf-81" value="" style="rhombus;whiteSpace=wrap;html=1;rotation=-210;strokeColor=default;gradientColor=none;gradientDirection=east;fillColor=none;fillStyle=auto;" vertex="1" parent="1">
          <mxGeometry x="227" y="1010" width="23" height="19" as="geometry" />
        </mxCell>
        <mxCell id="BtlCBsfIH0ALJilUzKAf-92" value="" style="endArrow=classic;html=1;rounded=0;entryX=0;entryY=0.5;entryDx=0;entryDy=0;exitX=0.99;exitY=-0.001;exitDx=0;exitDy=0;exitPerimeter=0;" edge="1" parent="1" source="BtlCBsfIH0ALJilUzKAf-42" target="BtlCBsfIH0ALJilUzKAf-46">
          <mxGeometry relative="1" as="geometry">
            <mxPoint x="977" y="621" as="sourcePoint" />
            <mxPoint x="838" y="589" as="targetPoint" />
          </mxGeometry>
        </mxCell>
        <mxCell id="BtlCBsfIH0ALJilUzKAf-93" value="1..*" style="edgeLabel;resizable=0;html=1;;align=left;verticalAlign=bottom;" connectable="0" vertex="1" parent="BtlCBsfIH0ALJilUzKAf-92">
          <mxGeometry x="-1" relative="1" as="geometry">
            <mxPoint x="3" y="-3" as="offset" />
          </mxGeometry>
        </mxCell>
        <mxCell id="BtlCBsfIH0ALJilUzKAf-94" value="*" style="edgeLabel;resizable=0;html=1;;align=right;verticalAlign=bottom;" connectable="0" vertex="1" parent="BtlCBsfIH0ALJilUzKAf-92">
          <mxGeometry x="1" relative="1" as="geometry">
            <mxPoint x="-6" y="-18" as="offset" />
          </mxGeometry>
        </mxCell>
        <mxCell id="BtlCBsfIH0ALJilUzKAf-95" value="" style="rhombus;whiteSpace=wrap;html=1;rotation=-135;strokeColor=default;gradientColor=none;gradientDirection=east;fillColor=none;fillStyle=auto;" vertex="1" parent="1">
          <mxGeometry x="931" y="647" width="23" height="19" as="geometry" />
        </mxCell>
        <mxCell id="BtlCBsfIH0ALJilUzKAf-96" value="" style="endArrow=classic;html=1;rounded=0;entryX=0.999;entryY=0.022;entryDx=0;entryDy=0;exitX=0;exitY=1;exitDx=0;exitDy=0;entryPerimeter=0;" edge="1" parent="1" source="BtlCBsfIH0ALJilUzKAf-45" target="BtlCBsfIH0ALJilUzKAf-49">
          <mxGeometry relative="1" as="geometry">
            <mxPoint x="823" y="852" as="sourcePoint" />
            <mxPoint x="768" y="719" as="targetPoint" />
          </mxGeometry>
        </mxCell>
        <mxCell id="BtlCBsfIH0ALJilUzKAf-97" value="*" style="edgeLabel;resizable=0;html=1;;align=left;verticalAlign=bottom;" connectable="0" vertex="1" parent="BtlCBsfIH0ALJilUzKAf-96">
          <mxGeometry x="-1" relative="1" as="geometry">
            <mxPoint x="-18" y="6" as="offset" />
          </mxGeometry>
        </mxCell>
        <mxCell id="BtlCBsfIH0ALJilUzKAf-98" value="1" style="edgeLabel;resizable=0;html=1;;align=right;verticalAlign=bottom;" connectable="0" vertex="1" parent="BtlCBsfIH0ALJilUzKAf-96">
          <mxGeometry x="1" relative="1" as="geometry">
            <mxPoint x="7" y="-15" as="offset" />
          </mxGeometry>
        </mxCell>
        <mxCell id="BtlCBsfIH0ALJilUzKAf-99" value="" style="endArrow=classic;html=1;rounded=0;entryX=0.75;entryY=0;entryDx=0;entryDy=0;exitX=0.25;exitY=1;exitDx=0;exitDy=0;" edge="1" parent="1" source="1sjx6QfUH2LazkW_bVXW-22" target="1sjx6QfUH2LazkW_bVXW-34">
          <mxGeometry relative="1" as="geometry">
            <mxPoint x="367" y="396" as="sourcePoint" />
            <mxPoint x="400" y="310" as="targetPoint" />
          </mxGeometry>
        </mxCell>
        <mxCell id="BtlCBsfIH0ALJilUzKAf-100" value="1" style="edgeLabel;resizable=0;html=1;;align=left;verticalAlign=bottom;" connectable="0" vertex="1" parent="BtlCBsfIH0ALJilUzKAf-99">
          <mxGeometry x="-1" relative="1" as="geometry">
            <mxPoint x="-28" y="21" as="offset" />
          </mxGeometry>
        </mxCell>
        <mxCell id="BtlCBsfIH0ALJilUzKAf-101" value="*" style="edgeLabel;resizable=0;html=1;;align=right;verticalAlign=bottom;" connectable="0" vertex="1" parent="BtlCBsfIH0ALJilUzKAf-99">
          <mxGeometry x="1" relative="1" as="geometry">
            <mxPoint x="-6" y="-9" as="offset" />
          </mxGeometry>
        </mxCell>
        <mxCell id="BtlCBsfIH0ALJilUzKAf-103" value="Usuario" style="shape=table;childLayout=tableLayout;startSize=40;collapsible=0;recursiveResize=0;expand=0;" vertex="1" parent="1">
          <mxGeometry x="349" y="1063" width="160" height="165.62792400981107" as="geometry" />
        </mxCell>
        <mxCell id="BtlCBsfIH0ALJilUzKAf-104" value="" style="shape=tableRow;horizontal=0;swimlaneHead=0;swimlaneBody=0;top=0;left=0;strokeColor=inherit;bottom=0;right=0;dropTarget=0;fontStyle=0;fillColor=none;points=[[0,0.5],[1,0.5]];portConstraint=eastwest;startSize=0;collapsible=0;recursiveResize=0;expand=0;" vertex="1" parent="BtlCBsfIH0ALJilUzKAf-103">
          <mxGeometry y="40" width="160" height="126" as="geometry" />
        </mxCell>
        <mxCell id="BtlCBsfIH0ALJilUzKAf-105" value="id: int&#xa;email: string&#xa;senha: string&#xa;ultimoLogin: Date&#xa;tentativasFalhas: int" style="swimlane;swimlaneHead=0;swimlaneBody=0;fontStyle=0;strokeColor=inherit;connectable=0;fillColor=none;startSize=67;collapsible=0;recursiveResize=0;expand=0;align=left;fontSize=9;" vertex="1" parent="BtlCBsfIH0ALJilUzKAf-104">
          <mxGeometry width="160" height="126" as="geometry">
            <mxRectangle width="160" height="126" as="alternateBounds" />
          </mxGeometry>
        </mxCell>
        <mxCell id="BtlCBsfIH0ALJilUzKAf-106" value="&lt;div style=&quot;font-size: 9px;&quot;&gt;&lt;div&gt;adicionarOrdem(ordem: Ordem): void&lt;/div&gt;&lt;div&gt;removerOrdem(ordem: Ordem): void&lt;/div&gt;&lt;div&gt;consultarOrdens(): List[Ordem]&lt;/div&gt;&lt;div&gt;consultarCarteira(): Carteira&lt;/div&gt;&lt;div style=&quot;font-size: 8px;&quot;&gt;modificarOrdem(ordem: Ordem): void&lt;/div&gt;&lt;/div&gt;" style="text;html=1;align=left;verticalAlign=middle;resizable=0;points=[];autosize=1;strokeColor=none;fillColor=none;fontSize=9;" vertex="1" parent="BtlCBsfIH0ALJilUzKAf-105">
          <mxGeometry y="64" width="168" height="65" as="geometry" />
        </mxCell>
        <mxCell id="BtlCBsfIH0ALJilUzKAf-108" value="" style="endArrow=classic;html=1;rounded=0;entryX=0.5;entryY=1;entryDx=0;entryDy=0;exitX=0.5;exitY=0;exitDx=0;exitDy=0;" edge="1" parent="1" source="BtlCBsfIH0ALJilUzKAf-103" target="1sjx6QfUH2LazkW_bVXW-43">
          <mxGeometry relative="1" as="geometry">
            <mxPoint x="355" y="1101" as="sourcePoint" />
            <mxPoint x="386" y="996" as="targetPoint" />
          </mxGeometry>
        </mxCell>
        <mxCell id="BtlCBsfIH0ALJilUzKAf-109" value="1" style="edgeLabel;resizable=0;html=1;;align=left;verticalAlign=bottom;" connectable="0" vertex="1" parent="BtlCBsfIH0ALJilUzKAf-108">
          <mxGeometry x="-1" relative="1" as="geometry">
            <mxPoint x="-12" y="-10" as="offset" />
          </mxGeometry>
        </mxCell>
        <mxCell id="BtlCBsfIH0ALJilUzKAf-110" value="1" style="edgeLabel;resizable=0;html=1;;align=right;verticalAlign=bottom;" connectable="0" vertex="1" parent="BtlCBsfIH0ALJilUzKAf-108">
          <mxGeometry x="1" relative="1" as="geometry">
            <mxPoint x="-21" y="26" as="offset" />
          </mxGeometry>
        </mxCell>
        <mxCell id="BtlCBsfIH0ALJilUzKAf-112" value="" style="endArrow=classic;html=1;rounded=0;entryX=1;entryY=0.5;entryDx=0;entryDy=0;exitX=0;exitY=0.5;exitDx=0;exitDy=0;" edge="1" parent="1" source="1sjx6QfUH2LazkW_bVXW-44" target="1sjx6QfUH2LazkW_bVXW-37">
          <mxGeometry relative="1" as="geometry">
            <mxPoint x="200" y="1063" as="sourcePoint" />
            <mxPoint x="376" y="986" as="targetPoint" />
          </mxGeometry>
        </mxCell>
        <mxCell id="BtlCBsfIH0ALJilUzKAf-113" value="1" style="edgeLabel;resizable=0;html=1;;align=left;verticalAlign=bottom;" connectable="0" vertex="1" parent="BtlCBsfIH0ALJilUzKAf-112">
          <mxGeometry x="-1" relative="1" as="geometry">
            <mxPoint x="-28" y="-3" as="offset" />
          </mxGeometry>
        </mxCell>
        <mxCell id="BtlCBsfIH0ALJilUzKAf-114" value="*" style="edgeLabel;resizable=0;html=1;;align=right;verticalAlign=bottom;" connectable="0" vertex="1" parent="BtlCBsfIH0ALJilUzKAf-112">
          <mxGeometry x="1" relative="1" as="geometry">
            <mxPoint x="18" y="-10" as="offset" />
          </mxGeometry>
        </mxCell>
        <mxCell id="BtlCBsfIH0ALJilUzKAf-68" value="" style="endArrow=classic;html=1;rounded=0;entryX=0.5;entryY=0;entryDx=0;entryDy=0;exitX=0.75;exitY=1;exitDx=0;exitDy=0;" edge="1" parent="1" source="1sjx6QfUH2LazkW_bVXW-31" target="1sjx6QfUH2LazkW_bVXW-37">
          <mxGeometry relative="1" as="geometry">
            <mxPoint x="102" y="897" as="sourcePoint" />
            <mxPoint x="344" y="948" as="targetPoint" />
          </mxGeometry>
        </mxCell>
        <mxCell id="BtlCBsfIH0ALJilUzKAf-69" value="1" style="edgeLabel;resizable=0;html=1;;align=left;verticalAlign=bottom;" connectable="0" vertex="1" parent="BtlCBsfIH0ALJilUzKAf-68">
          <mxGeometry x="-1" relative="1" as="geometry">
            <mxPoint x="-25" y="17" as="offset" />
          </mxGeometry>
        </mxCell>
        <mxCell id="BtlCBsfIH0ALJilUzKAf-70" value="1" style="edgeLabel;resizable=0;html=1;;align=right;verticalAlign=bottom;" connectable="0" vertex="1" parent="BtlCBsfIH0ALJilUzKAf-68">
          <mxGeometry x="1" relative="1" as="geometry">
            <mxPoint x="-1" y="-7" as="offset" />
          </mxGeometry>
        </mxCell>
        <mxCell id="BtlCBsfIH0ALJilUzKAf-71" value="" style="endArrow=classic;html=1;rounded=0;entryX=-0.006;entryY=0.06;entryDx=0;entryDy=0;exitX=1;exitY=0.25;exitDx=0;exitDy=0;entryPerimeter=0;" edge="1" parent="1" source="1sjx6QfUH2LazkW_bVXW-31" target="BtlCBsfIH0ALJilUzKAf-37">
          <mxGeometry relative="1" as="geometry">
            <mxPoint x="264" y="900" as="sourcePoint" />
            <mxPoint x="416" y="902" as="targetPoint" />
          </mxGeometry>
        </mxCell>
        <mxCell id="BtlCBsfIH0ALJilUzKAf-72" value="1" style="edgeLabel;resizable=0;html=1;;align=left;verticalAlign=bottom;" connectable="0" vertex="1" parent="BtlCBsfIH0ALJilUzKAf-71">
          <mxGeometry x="-1" relative="1" as="geometry">
            <mxPoint x="12" y="-11" as="offset" />
          </mxGeometry>
        </mxCell>
        <mxCell id="BtlCBsfIH0ALJilUzKAf-73" value="*" style="edgeLabel;resizable=0;html=1;;align=right;verticalAlign=bottom;" connectable="0" vertex="1" parent="BtlCBsfIH0ALJilUzKAf-71">
          <mxGeometry x="1" relative="1" as="geometry">
            <mxPoint x="-10" y="-7" as="offset" />
          </mxGeometry>
        </mxCell>
      </root>
    </mxGraphModel>
  </diagram>
  <diagram id="KmTIy4VtdeEU4baky1eV" name="Página-8">
    <mxGraphModel grid="0" page="0" gridSize="10" guides="1" tooltips="1" connect="1" arrows="1" fold="1" pageScale="1" pageWidth="827" pageHeight="1169" math="0" shadow="0">
      <root>
        <mxCell id="0" />
        <mxCell id="1" parent="0" />
      </root>
    </mxGraphModel>
  </diagram>
</mxfile>
